HIERARCHY
ROOT Hips
{
	OFFSET 0.00000 0.00000 0.00000
	CHANNELS 6 Xposition Yposition Zposition Zrotation Yrotation Xrotation 
	JOINT LHipJoint
	{
		OFFSET 0 0 0
		CHANNELS 3 Zrotation Yrotation Xrotation
		JOINT LeftHip
		{
			OFFSET 1.29432 -1.88279 0.59910
			CHANNELS 3 Zrotation Yrotation Xrotation
			JOINT LeftKnee
			{
				OFFSET 2.63039 -7.22694 0.00000
				CHANNELS 3 Zrotation Yrotation Xrotation
				JOINT LeftAnkle
				{
					OFFSET 2.70674 -7.43672 0.00000
					CHANNELS 3 Zrotation Yrotation Xrotation
					JOINT LeftToe
					{
						OFFSET 0.15066 -0.41394 2.09027
						CHANNELS 3 Zrotation Yrotation Xrotation
						End Site
						{
							OFFSET 0.00000 -0.00000 1.07518
						}
					}
				}
			}
		}
	}
	JOINT RHipJoint
	{
		OFFSET 0 0 0
		CHANNELS 3 Zrotation Yrotation Xrotation
		JOINT RightHip
		{
			OFFSET -1.37068 -1.88279 0.59910
			CHANNELS 3 Zrotation Yrotation Xrotation
			JOINT RightKnee
			{
				OFFSET -2.57023 -7.06166 0.00000
				CHANNELS 3 Zrotation Yrotation Xrotation
				JOINT RightAnkle
				{
					OFFSET -2.76461 -7.59570 0.00000
					CHANNELS 3 Zrotation Yrotation Xrotation
					JOINT RightToe
					{
						OFFSET -0.24175 -0.64785 2.19719
						CHANNELS 3 Zrotation Yrotation Xrotation
						End Site
						{
							OFFSET -0.00000 -0.00000 1.14803
						}
					}
				}
			}
		}
	}
	JOINT lowerback
	{
		OFFSET 0 0 0
		CHANNELS 3 Zrotation Yrotation Xrotation
		JOINT Chest
		{
			OFFSET -0.03138 2.03983 -0.23106
			CHANNELS 3 Zrotation Yrotation Xrotation
			JOINT Chest2
			{
				OFFSET -0.00325 2.06238 -0.06878
				CHANNELS 3 Zrotation Yrotation Xrotation
				JOINT lowerneck
				{
					OFFSET 0 0 0
					CHANNELS 3 Zrotation Yrotation Xrotation
					JOINT Neck
					{
						OFFSET -0.00002 1.75318 0.18090
						CHANNELS 3 Zrotation Yrotation Xrotation
						JOINT Head
						{
							OFFSET 0.08806 1.75856 -0.25387
							CHANNELS 3 Zrotation Yrotation Xrotation
							End Site
							{
								OFFSET 0.02554 1.78597 -0.10684
							}
						}
					}
				}
				JOINT LeftCollar
				{
					OFFSET 0 0 0
					CHANNELS 3 Zrotation Yrotation Xrotation
					JOINT LeftShoulder
					{
						OFFSET 3.09657 1.33597 -0.04414
CHANNELS 3 Zrotation Xrotation Yrotation
						JOINT LeftElbow
						{
OFFSET 0 -5.342980 -0.000000
CHANNELS 3 Zrotation Xrotation Yrotation
							JOINT LeftWrist
							{
OFFSET 0 -3.672620 -0.000000
CHANNELS 3 Zrotation Xrotation Yrotation
								JOINT lhand
								{
									OFFSET 0 0 0
CHANNELS 3 Zrotation Xrotation Yrotation
									JOINT LFingers
									{
OFFSET 0 -0.599300 -0.000000
CHANNELS 3 Zrotation Xrotation Yrotation
										End Site
										{
OFFSET 0 -0.483170 -0.000000
										}
									}
								}
								JOINT LThumb
								{
OFFSET 0 0.000000 0.000000
CHANNELS 3 Zrotation Xrotation Yrotation
									End Site
									{
OFFSET 0 -0.490550 0.490550
									}
								}
							}
						}
					}
				}
				JOINT RightCollar
				{
					OFFSET 0 0 0
					CHANNELS 3 Zrotation Yrotation Xrotation
					JOINT RightShoulder
					{
						OFFSET -3.16460 1.32273 -0.23382
CHANNELS 3 Zrotation Xrotation Yrotation
						JOINT RightElbow
						{
OFFSET 0 -5.549670 0.033480
CHANNELS 3 Zrotation Xrotation Yrotation
							JOINT RightWrist
							{
OFFSET 0 -3.694010 0.000000
CHANNELS 3 Zrotation Xrotation Yrotation
								JOINT rhand
								{
									OFFSET 0 0 0
CHANNELS 3 Zrotation Xrotation Yrotation
									JOINT RFingers
									{
OFFSET 0 -0.638110 0.000000
CHANNELS 3 Zrotation Xrotation Yrotation
										End Site
										{
OFFSET 0 -0.514460 0.000000
										}
									}
								}
								JOINT RThumb
								{
OFFSET 0 0.000000 0.000000
CHANNELS 3 Zrotation Xrotation Yrotation
									End Site
									{
OFFSET 0 -0.522320 0.522320
									}
								}
							}
						}
					}
				}
			}
		}
	}
}
MOTION
Frames: 10
Frame Time: 0.008333333333333333
14.455572 10.936133 16.080967 -185.649192 -18.483543 -171.268960 0.000000 0.000000 0.000000 -3.054649 -3.146782 -89.639834 28.939068 17.964792 117.020616 -0.221510 -28.791413 -19.095872 0.417653 -4.145559 -11.486946 0.000000 0.000000 0.000000 6.287746 -3.212111 -14.051183 -27.263855 -18.684795 111.696050 -0.111996 8.043349 13.512694 -0.806293 5.730677 -16.005003 -9.439901 0.130279 27.470129 -6.339460 -5.621989 11.934180 0.009248 -4.153733 -1.675231 -15.282807 -15.161450 2.320321 23.882784 -20.253381 -9.404350 8.970146 -10.846707 1.086446 0.000000 0.000000 0.000000 60.715799 -10.000102 -58.121588 121.734476 -55.829717 87.098006 37.846924 27.911505 -23.937566 0.000000 0.000000 0.000000 -7.125000 0.000000 0.000000 10.039074 59.041954 -3.466652 0.000000 0.000000 0.000000 -37.511260 -8.723030 -28.493456 -144.504588 -45.162680 -104.836378 -41.910597 -19.376260 -13.379773 0.000000 0.000000 0.000000 7.125000 0.000000 0.000000 -9.716589 12.443735 -7.505389
14.460717 10.963620 16.072143 -186.010816 -18.504852 -171.475447 0.000000 0.000000 0.000000 -3.445365 -3.196063 -89.022256 28.909596 17.979058 116.925164 -0.397990 -29.367643 -18.514105 0.229923 -2.969868 -8.203334 0.000000 0.000000 0.000000 5.722497 -3.528079 -13.680118 -27.177615 -18.717061 111.427135 -0.120956 8.238645 13.892787 -0.802532 5.717460 -15.966855 -10.120588 0.323735 27.445881 -6.164974 -5.471793 11.595819 0.552869 -4.054879 -1.966025 -15.169624 -14.639838 4.636245 24.127796 -19.585214 -10.752811 9.408232 -10.683031 0.213535 0.000000 0.000000 0.000000 60.099475 -9.703697 -59.080625 121.313014 -55.949567 86.749095 37.772650 27.791966 -24.081739 0.000000 0.000000 0.000000 -7.125000 0.000000 0.000000 9.937100 59.188932 -3.465727 0.000000 0.000000 0.000000 -37.993818 -7.759746 -27.794520 -144.397713 -45.237459 -104.760623 -42.580663 -18.847109 -12.887632 0.000000 0.000000 0.000000 7.125000 0.000000 0.000000 -10.244145 12.919173 -7.822908
14.465243 11.003883 16.057232 -186.064581 -18.546617 -171.634135 0.000000 0.000000 0.000000 -3.195041 -3.045004 -89.004131 28.980372 17.944693 117.154808 -0.906295 -30.637660 -16.566173 0.021103 0.284524 0.780430 0.000000 0.000000 0.000000 5.767137 -3.619976 -13.372178 -27.070690 -18.756476 111.094057 -0.155241 8.010288 14.165430 -0.780609 5.640682 -15.745349 -10.244903 0.457190 27.130849 -6.002568 -5.251168 11.634235 0.715313 -3.959898 -1.759699 -14.877341 -14.355737 5.717337 24.393888 -19.167288 -11.789327 9.663283 -10.595582 -0.337566 0.000000 0.000000 0.000000 59.822504 -10.078233 -59.410291 120.723426 -56.113876 86.260146 37.557650 27.662697 -24.401610 0.000000 0.000000 0.000000 -7.125000 0.000000 0.000000 9.646077 59.501259 -3.435378 0.000000 0.000000 0.000000 -38.373381 -7.338263 -27.748566 -144.309274 -45.299071 -104.697755 -42.913434 -18.547904 -12.744498 0.000000 0.000000 0.000000 7.125000 0.000000 0.000000 -10.487174 13.026591 -7.991487
14.468149 10.994752 16.054186 -185.844861 -18.529598 -171.714608 0.000000 0.000000 0.000000 -3.128609 -2.841540 -88.939911 28.965578 17.951864 117.106765 -0.757331 -30.417562 -17.266484 0.025033 -0.661583 -1.818882 0.000000 0.000000 0.000000 6.132154 -3.501541 -13.299955 -27.054991 -18.762206 111.045403 -0.169320 7.751795 14.088799 -0.746868 5.520241 -15.398572 -10.135090 0.483182 26.720204 -5.835319 -5.097505 11.747372 0.763310 -3.899125 -1.442223 -14.397589 -14.145626 5.751276 24.510171 -18.806792 -12.449370 9.719291 -10.486065 -0.635988 0.000000 0.000000 0.000000 59.513927 -10.592661 -59.134965 119.841714 -56.351721 85.527087 36.950075 27.536277 -24.185011 0.000000 0.000000 0.000000 -7.125000 0.000000 0.000000 8.909902 59.093010 -3.083554 0.000000 0.000000 0.000000 -38.578533 -7.501211 -27.809984 -144.203198 -45.372753 -104.622270 -42.805227 -18.108158 -12.785964 0.000000 0.000000 0.000000 7.125000 0.000000 0.000000 -10.409081 12.998107 -7.935972
14.470078 11.000003 16.044782 -185.980766 -18.465241 -171.729553 0.000000 0.000000 0.000000 -3.201437 -2.788590 -88.807930 28.977144 17.946224 117.144201 -0.886544 -30.742069 -16.782598 0.013352 -0.153010 -0.420538 0.000000 0.000000 0.000000 6.011890 -3.463871 -13.175358 -27.028488 -18.771807 110.963111 -0.168695 7.766970 14.096670 -0.742247 5.503410 -15.350124 -9.904141 0.557424 26.518473 -5.909242 -5.001081 12.206776 0.485662 -3.924197 -0.868518 -13.681841 -14.406255 3.094813 24.173087 -19.072347 -11.434799 9.175398 -10.483334 0.029159 0.000000 0.000000 0.000000 59.833150 -11.462593 -58.437429 119.454789 -56.453493 85.204901 37.276584 27.690649 -24.252552 0.000000 0.000000 0.000000 -7.125000 0.000000 0.000000 9.310088 59.256250 -3.262235 0.000000 0.000000 0.000000 -38.536361 -8.322539 -28.375069 -143.981208 -45.525891 -104.464053 -42.875564 -18.283491 -13.510755 0.000000 0.000000 0.000000 7.125000 0.000000 0.000000 -10.313180 12.046166 -8.068250
14.469348 10.994466 16.045989 -186.371446 -18.377140 -171.681603 0.000000 0.000000 0.000000 -3.745242 -2.923166 -88.486896 28.943556 17.962577 117.035133 -0.821241 -30.520143 -16.972275 0.004050 0.321856 0.884321 0.000000 0.000000 0.000000 5.391438 -3.504936 -13.126392 -27.048297 -18.764669 111.024480 -0.160655 8.000451 14.236622 -0.730598 5.461032 -15.228399 -10.237602 0.546494 26.538019 -5.865954 -5.105705 12.195609 0.742515 -3.994268 -0.847596 -13.973273 -14.278340 1.461326 24.073313 -18.925957 -10.287086 8.993643 -10.262364 0.617207 0.000000 0.000000 0.000000 59.484861 -11.277480 -58.299402 119.469301 -56.449745 85.216953 37.351376 27.673127 -24.583022 0.000000 0.000000 0.000000 -7.125000 0.000000 0.000000 9.372787 59.655432 -3.371571 0.000000 0.000000 0.000000 -38.970129 -8.768336 -28.189523 -143.661440 -45.744578 -104.235539 -43.153485 -18.688062 -14.083104 0.000000 0.000000 0.000000 7.125000 0.000000 0.000000 -10.378583 11.239675 -8.297430
14.467989 10.989330 16.046767 -185.922534 -18.432377 -172.055347 0.000000 0.000000 0.000000 -3.239499 -2.721912 -88.511717 28.999731 17.935135 117.217595 -0.866322 -30.619564 -16.791561 0.005659 0.230846 0.634550 0.000000 0.000000 0.000000 5.974799 -3.465597 -12.852589 -27.026663 -18.772536 110.957208 -0.168040 7.918670 14.257221 -0.714016 5.397733 -15.047152 -10.222576 0.699656 26.701582 -5.604894 -4.716383 11.256744 0.994476 -3.629376 -1.979303 -13.479678 -13.646297 4.489022 23.713690 -18.163387 -10.597301 9.198051 -9.981478 -0.209858 0.000000 0.000000 0.000000 58.966952 -10.628150 -60.335538 119.239465 -56.508923 85.025276 36.467462 27.247951 -24.338516 0.000000 0.000000 0.000000 -7.125000 0.000000 0.000000 8.300426 59.143813 -2.881309 0.000000 0.000000 0.000000 -38.959089 -6.788371 -27.630789 -143.697965 -45.719770 -104.261598 -43.352521 -18.986592 -14.148118 0.000000 0.000000 0.000000 7.125000 0.000000 0.000000 -10.492191 11.104657 -8.420793
14.464248 10.985801 16.042415 -185.835628 -18.378977 -172.180506 0.000000 0.000000 0.000000 -3.180716 -2.585432 -88.449393 29.031273 17.919736 117.320102 -0.793049 -30.532690 -17.153322 0.023181 -0.370944 -1.019916 0.000000 0.000000 0.000000 6.053376 -3.381855 -12.617753 -27.008535 -18.779102 110.901091 -0.181969 7.852957 14.395363 -0.612896 5.009243 -13.935239 -9.451508 0.584730 27.015932 -6.023524 -4.711967 10.871933 0.155874 -3.532352 -2.666031 -12.662200 -13.490780 3.773176 23.335506 -18.019683 -9.197998 8.849356 -9.806429 0.155876 0.000000 0.000000 0.000000 59.463157 -10.634478 -61.197668 118.826568 -56.614562 84.680813 36.267098 27.140719 -24.469419 0.000000 0.000000 0.000000 -7.125000 0.000000 0.000000 8.038461 59.241297 -2.807859 0.000000 0.000000 0.000000 -38.168487 -6.144924 -27.503524 -143.644924 -45.755887 -104.223641 -43.191282 -19.548876 -14.894985 0.000000 0.000000 0.000000 7.125000 0.000000 0.000000 -10.240212 10.186792 -8.405405
14.459469 10.983372 16.043080 -186.110917 -18.382194 -171.866459 0.000000 0.000000 0.000000 -3.388809 -2.868628 -88.738407 29.048326 17.911388 117.375536 -0.651567 -30.175173 -17.682602 0.027335 -1.065706 -2.929565 0.000000 0.000000 0.000000 5.610432 -3.451889 -12.867609 -27.025289 -18.772977 110.953144 -0.182059 7.964488 14.521115 -0.582380 4.886529 -13.585363 -10.007914 0.781127 26.278324 -5.606376 -4.426096 11.037927 0.789917 -3.438161 -2.061432 -12.477796 -13.380862 2.698204 23.006236 -17.825284 -8.936598 8.637596 -9.640191 0.320424 0.000000 0.000000 0.000000 58.697137 -11.505139 -61.215103 118.163957 -56.779692 84.127020 36.369166 27.408908 -24.953210 0.000000 0.000000 0.000000 -7.125000 0.000000 0.000000 8.105838 59.819752 -2.943806 0.000000 0.000000 0.000000 -38.902332 -6.617720 -28.230532 -143.217827 -46.043610 -103.916944 -42.395510 -18.814464 -14.840936 0.000000 0.000000 0.000000 7.125000 0.000000 0.000000 -9.746683 10.463615 -7.933163
14.454568 10.991139 16.040954 -186.153529 -18.347593 -171.974978 0.000000 0.000000 0.000000 -3.382649 -2.824972 -88.687574 29.078098 17.896651 117.472419 -0.862679 -30.464092 -16.667835 0.005273 -0.437635 -1.202545 0.000000 0.000000 0.000000 5.534137 -3.414856 -12.670816 -26.997773 -18.782969 110.867592 -0.198066 7.831369 14.612756 -0.538333 4.701097 -13.057969 -9.755669 0.729373 26.404331 -5.645541 -4.472295 11.124385 0.622926 -3.466013 -2.046433 -12.020714 -13.139579 1.201893 22.924680 -17.498432 -8.344578 8.431868 -9.402435 0.628983 0.000000 0.000000 0.000000 58.608039 -11.730497 -61.030864 117.682197 -56.896388 83.723664 36.392946 27.191339 -24.817498 0.000000 0.000000 0.000000 -7.125000 0.000000 0.000000 8.152165 59.671301 -2.931784 0.000000 0.000000 0.000000 -38.873107 -7.227993 -28.576850 -142.817873 -46.308748 -103.628357 -41.879983 -17.868832 -14.686389 0.000000 0.000000 0.000000 7.125000 0.000000 0.000000 -9.448538 10.790836 -7.619029
